<svg id="Layer_1" data-name="Layer 1" xmlns="http://www.w3.org/2000/svg" xmlns:xlink="http://www.w3.org/1999/xlink" viewBox="0 0 216 216"><defs><style>.cls-1{fill:#2d2d2d;}.cls-2{fill:#994e9e;}.cls-3{fill:url(#linear-gradient);}.cls-4{fill:url(#linear-gradient-2);}</style><linearGradient id="linear-gradient" x1="163.11" y1="13.43" x2="81.26" y2="156.76" gradientUnits="userSpaceOnUse"><stop offset="0.02" stop-color="#00aeef"/><stop offset="1" stop-color="#994e9e"/></linearGradient><linearGradient id="linear-gradient-2" x1="26.19" y1="191.88" x2="78.99" y2="153.63" xlink:href="#linear-gradient"/></defs><title>Artboard 2</title><rect class="cls-1" width="216" height="216"/><path class="cls-2" d="M110.33,109.85c-1.48-1.16-3-2.41-4.66-3.7Q107.92,107.86,110.33,109.85Z"/><path class="cls-3" d="M190.35,123.25c-.51-2.68-4.45-4.2-6.43-6-2.25-2-3.12-5.23-4.19-7.93a33.66,33.66,0,0,0-4.94-8.56c-2.39-3-9.83-5.09-9.83-5.09l-.12-.2c-2.32-3.74-15-20.7-18.09-23.93a105.24,105.24,0,0,0-18.32-14.81A102.49,102.49,0,0,0,106,45.24a40.39,40.39,0,0,0-14.23-2.49c-4.13.1-9.22.87-12.83,3a5.53,5.53,0,0,0-2.68,3.38,6.83,6.83,0,0,0,0,2.21C77.7,65,90.72,71.67,103,73.05c5.71.65,11.5.69,17.14,1.79,13,2.56,24.27,10.57,34.36,19.18-9.25-7.54-19.47-14.44-31.12-17-10.69-2.34-22.11-.92-32.4-4.6C87,71,83.14,68.68,81,65a40.76,40.76,0,0,0-20.32,7.14c-.22.15-.43.36-.62.51.58-3.2-3.1-6.63-5.44-8.2a17.1,17.1,0,0,0-11.17-3A12.73,12.73,0,0,0,33.12,69a11.34,11.34,0,0,1,11,5.67,37.65,37.65,0,0,0-5.71-1.94c-3.29-.73-7.82-.61-10.19,2.2a12.71,12.71,0,0,0-2.61,7.27,16,16,0,0,0,2.46,6.64A12.6,12.6,0,0,0,35,94.06c2.33.64,8,1.44,11-1.18A9.32,9.32,0,0,0,44,94a7.57,7.57,0,0,0-2,1.74,14.34,14.34,0,0,0-2.38,4.65A42,42,0,0,0,40.7,130a32.15,32.15,0,0,0,4.94,8c6.49,7.64,16.68,10.52,26.22,12,1,.16,2.14.33,3.31.49a119.29,119.29,0,0,0,22.12,1.15c11.89-.73,23.45.58,34.39,5.54A109,109,0,0,1,145.61,165c4.16,2.69,8.08,5.83,12.9,7.26a23.26,23.26,0,0,0,12.76.22,2.77,2.77,0,0,0,1.16-.55,2.67,2.67,0,0,0,.65-1.41,19,19,0,0,0-6.28-18.14,17.76,17.76,0,0,0-4.3-3.23,59.89,59.89,0,0,0-6.26-1.8c-10.49-3.19-20.42-7.24-31.47-7.64a71.77,71.77,0,0,0-12.08.61c-2,.27-4,.63-6,1.07-1,.23-2,.47-2.94.74l-1.45.43-.81.26h0l-.61.22.71-.29c.5-.36,2.95-2,8.19-3.16,3.13-13.1.82-24.23-5-33.58A46.82,46.82,0,0,0,86.13,88.94a57.26,57.26,0,0,0-11.78-4.32,30.7,30.7,0,0,1,12.32,3.22,56.46,56.46,0,0,1,10.54,6.63,55.8,55.8,0,0,1,10.59,12.34c5.94,9.51,8.25,19,5.2,32.18,6.16-1.17,13.79-1.31,27.67,1.16-.62-.11-1.73-1.53-2.18-2a39.35,39.35,0,0,1-3-2.77c-5.89-8.08-6.91-18.21-6.91-18.84,0,.31,3.41,3.5,4,4a9.31,9.31,0,0,1-1.56-3.72c-.36-1.4-1.2-9.33-.12-12a12,12,0,0,0,.4,3.27,4,4,0,0,0,2.2,2.88c-1.8-2.58-1.85-4.8-1.62-7.49s1.92-5.89,4.33-7.12c-2.41,1.52-3.53,4.54-3.5,7.39a23.66,23.66,0,0,0,2.08,8.24,4,4,0,0,1-3.3-1.47c.26.33-.77,7.13,4.66,12.36A8.71,8.71,0,0,0,135,123a4.59,4.59,0,0,1-1.33-.24,11.93,11.93,0,0,1-2.06-1.23c-.16,2,.91,4,1.67,5.82a29.82,29.82,0,0,0,6.54,9.51,37.11,37.11,0,0,0,14.54,8.53,55.8,55.8,0,0,0,9.37,2.15l.73-.27c5.45-2,10.46-4.25,14.95-8,2.84-2.39,5.61-5,6.79-8.61a26.1,26.1,0,0,0,.8-3.16,7.37,7.37,0,0,0,.37-2.9,9.07,9.07,0,0,1,.32,3,13.43,13.43,0,0,1-.17,1.54,3.89,3.89,0,0,1-.25,1.29,39.34,39.34,0,0,0,2.69-4.83A3.78,3.78,0,0,0,190.35,123.25Zm-15.74-3.77A14.05,14.05,0,0,0,169,114a4.41,4.41,0,1,1,5.66,5.44Z"/><path class="cls-4" d="M90.87,153.5A126.29,126.29,0,0,1,74,152.33c-.54.14-2.3,1.56-3,1.9-2,1-13.67.29-15.82.66-4.41.77-5.39.38-9.38,2.64a6.24,6.24,0,0,0-2.54,2.34,5.23,5.23,0,0,0,.94,5.69,10.89,10.89,0,0,0,5.25,3,37.89,37.89,0,0,0,13.26,1.09c15.78-1,29.88-7,43.05-15.36l2.23-1.43C103.22,152.33,97.55,153.53,90.87,153.5Z"/></svg>